<svg width="24" height="24" viewBox="0 0 24 24" fill="none" xmlns="http://www.w3.org/2000/svg">
<path fill-rule="evenodd" clip-rule="evenodd" d="M7 1C7 0.447715 7.44772 0 8 0H16C16.5523 0 17 0.447715 17 1V5C17 5.55228 16.5523 6 16 6C15.4477 6 15 5.55228 15 5V2H9V5C9 5.55228 8.55228 6 8 6C7.44772 6 7 5.55228 7 5V1Z" fill="#868E96"/>
<path fill-rule="evenodd" clip-rule="evenodd" d="M0 5C0 4.44772 0.447715 4 1 4H23C23.5523 4 24 4.44772 24 5V15C24 15.5523 23.5523 16 23 16H15C14.4477 16 14 15.5523 14 15C14 14.4477 14.4477 14 15 14H22V6H2V14H9C9.55229 14 10 14.4477 10 15C10 15.5523 9.55229 16 9 16H1C0.447715 16 0 15.5523 0 15V5Z" fill="#868E96"/>
<path fill-rule="evenodd" clip-rule="evenodd" d="M2 17C2.55228 17 3 17.4477 3 18V22H21V18C21 17.4477 21.4477 17 22 17C22.5523 17 23 17.4477 23 18V23C23 23.5523 22.5523 24 22 24H2C1.44772 24 1 23.5523 1 23V18C1 17.4477 1.44772 17 2 17Z" fill="#868E96"/>
<path fill-rule="evenodd" clip-rule="evenodd" d="M8 13C8 12.4477 8.44772 12 9 12H15C15.5523 12 16 12.4477 16 13V17C16 17.5523 15.5523 18 15 18H9C8.44772 18 8 17.5523 8 17V13ZM10 14V16H14V14H10Z" fill="#868E96"/>
</svg>
