<svg width="24" height="24" viewBox="0 0 24 24" fill="none" xmlns="http://www.w3.org/2000/svg">
<path fill-rule="evenodd" clip-rule="evenodd" d="M13 5C13 4.44772 13.4477 4 14 4C19.5233 4 24 8.47672 24 14C24 19.5233 19.5233 24 14 24C8.47672 24 4 19.5233 4 14C4 13.4477 4.44772 13 5 13C5.55228 13 6 13.4477 6 14C6 18.4187 9.58128 22 14 22C18.4187 22 22 18.4187 22 14C22 9.58128 18.4187 6 14 6C13.4477 6 13 5.55228 13 5Z" fill="#868E96"/>
<path fill-rule="evenodd" clip-rule="evenodd" d="M0 10C0 4.47672 4.47672 0 10 0C10.5523 0 11 0.447715 11 1V10C11 10.5523 10.5523 11 10 11H1C0.447715 11 0 10.5523 0 10ZM2.06188 9H9V2.06188C5.38095 2.51304 2.51304 5.38095 2.06188 9Z" fill="#868E96"/>
</svg>
