<svg width="24" height="24" viewBox="0 0 24 24" fill="none" xmlns="http://www.w3.org/2000/svg">
<path fill-rule="evenodd" clip-rule="evenodd" d="M2 20V4H4V20C4 20.0073 4.00007 20.0375 4.03876 20.1019C4.08125 20.1726 4.16671 20.2767 4.32617 20.4038C4.65164 20.663 5.18572 20.9389 5.93904 21.1881C7.43545 21.6831 9.57359 22 12 22C14.4264 22 16.5645 21.6831 18.061 21.1881C18.8143 20.9389 19.3484 20.663 19.6738 20.4038C19.8333 20.2767 19.9188 20.1726 19.9612 20.1019C19.9999 20.0375 20 20.0073 20 20V4H22V20C22 20.8526 21.4946 21.5103 20.9199 21.9681C20.3391 22.4307 19.5607 22.7986 18.689 23.0869C16.9355 23.6669 14.5736 24 12 24C9.42641 24 7.06455 23.6669 5.31096 23.0869C4.43928 22.7986 3.66086 22.4307 3.08008 21.9681C2.50536 21.5103 2 20.8526 2 20Z" fill="#868E96"/>
<path fill-rule="evenodd" clip-rule="evenodd" d="M4 3.99994L4 4L4 4.00006C4 4.00095 3.99998 4.00521 4.00305 4.01529C4.00645 4.02644 4.01483 4.04845 4.03507 4.08143C4.07752 4.15057 4.16408 4.25453 4.32624 4.38232C4.65642 4.64253 5.19616 4.9206 5.95227 5.17264C7.45402 5.67322 9.59229 6 12 6C14.4077 6 16.546 5.67322 18.0477 5.17264C18.8038 4.9206 19.3436 4.64253 19.6738 4.38232C19.8359 4.25453 19.9225 4.15057 19.9649 4.08143C19.9852 4.04845 19.9935 4.02644 19.9969 4.01529C20 4.00521 20 4.00095 20 4.00006V4C20 3.99927 20.0001 3.99506 19.9969 3.98471C19.9935 3.97356 19.9852 3.95155 19.9649 3.91857C19.9225 3.84943 19.8359 3.74547 19.6738 3.61768C19.3436 3.35747 18.8038 3.0794 18.0477 2.82736C16.546 2.32678 14.4077 2 12 2C9.59229 2 7.45402 2.32678 5.95227 2.82736C5.19616 3.0794 4.65642 3.35747 4.32624 3.61768C4.16408 3.74547 4.07752 3.84943 4.03507 3.91857C4.01483 3.95155 4.00645 3.97356 4.00305 3.98471C3.99998 3.99479 4 3.99905 4 3.99994ZM5.31981 0.929996C7.07541 0.344796 9.43715 0 12 0C14.5629 0 16.9246 0.344796 18.6802 0.929996C19.5528 1.22085 20.331 1.58923 20.9117 2.04685C21.4811 2.49559 22 3.14805 22 4C22 4.85195 21.4811 5.50441 20.9117 5.95315C20.331 6.41077 19.5528 6.77915 18.6802 7.07C16.9246 7.6552 14.5629 8 12 8C9.43715 8 7.07541 7.6552 5.31981 7.07C4.44724 6.77915 3.66896 6.41077 3.08829 5.95315C2.51889 5.50441 2 4.85195 2 4C2 3.14805 2.51889 2.49559 3.08829 2.04685C3.66896 1.58923 4.44724 1.22085 5.31981 0.929996Z" fill="#868E96"/>
<path fill-rule="evenodd" clip-rule="evenodd" d="M4 11V12C4 12.0073 4.00007 12.0375 4.03876 12.1019C4.08125 12.1726 4.16671 12.2767 4.32617 12.4038C4.65164 12.663 5.18572 12.9389 5.93904 13.1881C7.43545 13.6831 9.57359 14 12 14C14.4264 14 16.5645 13.6831 18.061 13.1881C18.8143 12.9389 19.3484 12.663 19.6738 12.4038C19.8333 12.2767 19.9188 12.1726 19.9612 12.1019C19.9999 12.0375 20 12.0073 20 12V11H22V12C22 12.8526 21.4946 13.5103 20.9199 13.9681C20.3391 14.4307 19.5607 14.7986 18.689 15.0869C16.9355 15.6669 14.5736 16 12 16C9.42641 16 7.06455 15.6669 5.31096 15.0869C4.43928 14.7986 3.66086 14.4307 3.08008 13.9681C2.50536 13.5103 2 12.8526 2 12V11H4Z" fill="#868E96"/>
</svg>
