<svg width="24" height="24" viewBox="0 0 24 24" fill="none" xmlns="http://www.w3.org/2000/svg">
<path fill-rule="evenodd" clip-rule="evenodd" d="M12 8C12.5523 8 13 8.44772 13 9V15C13 15.5523 12.5523 16 12 16C11.4477 16 11 15.5523 11 15V9C11 8.44772 11.4477 8 12 8Z" fill="#1574F6"/>
<path fill-rule="evenodd" clip-rule="evenodd" d="M2 12C2 11.4477 2.44772 11 3 11H21C21.5523 11 22 11.4477 22 12V15C22 15.5523 21.5523 16 21 16C20.4477 16 20 15.5523 20 15V13H4V15C4 15.5523 3.55228 16 3 16C2.44772 16 2 15.5523 2 15V12Z" fill="#1574F6"/>
<path fill-rule="evenodd" clip-rule="evenodd" d="M3 20C2.44772 20 2 20.4477 2 21C2 21.5523 2.44772 22 3 22C3.55228 22 4 21.5523 4 21C4 20.4477 3.55228 20 3 20ZM0 21C0 19.3431 1.34315 18 3 18C4.65685 18 6 19.3431 6 21C6 22.6569 4.65685 24 3 24C1.34315 24 0 22.6569 0 21Z" fill="#1574F6"/>
<path fill-rule="evenodd" clip-rule="evenodd" d="M12 20C11.4477 20 11 20.4477 11 21C11 21.5523 11.4477 22 12 22C12.5523 22 13 21.5523 13 21C13 20.4477 12.5523 20 12 20ZM9 21C9 19.3431 10.3431 18 12 18C13.6569 18 15 19.3431 15 21C15 22.6569 13.6569 24 12 24C10.3431 24 9 22.6569 9 21Z" fill="#1574F6"/>
<path fill-rule="evenodd" clip-rule="evenodd" d="M21 20C20.4477 20 20 20.4477 20 21C20 21.5523 20.4477 22 21 22C21.5523 22 22 21.5523 22 21C22 20.4477 21.5523 20 21 20ZM18 21C18 19.3431 19.3431 18 21 18C22.6569 18 24 19.3431 24 21C24 22.6569 22.6569 24 21 24C19.3431 24 18 22.6569 18 21Z" fill="#1574F6"/>
<path fill-rule="evenodd" clip-rule="evenodd" d="M9 1C9 0.447715 9.44772 0 10 0H14C14.5523 0 15 0.447715 15 1V5C15 5.55228 14.5523 6 14 6H10C9.44772 6 9 5.55228 9 5V1ZM11 2V4H13V2H11Z" fill="#1574F6"/>
</svg>
