<svg width="24" height="24" viewBox="0 0 24 24" fill="none" xmlns="http://www.w3.org/2000/svg">
<path d="M12 23C18.0751 23 23 18.0751 23 12C23 5.92487 18.0751 1 12 1C5.92487 1 1 5.92487 1 12C1 18.0751 5.92487 23 12 23Z" stroke="#868E96" stroke-width="2" stroke-miterlimit="10" stroke-linecap="square"/>
<path d="M11.959 19C12.5113 19 12.959 18.5523 12.959 18C12.959 17.4477 12.5113 17 11.959 17C11.4067 17 10.959 17.4477 10.959 18C10.959 18.5523 11.4067 19 11.959 19Z" fill="#868E96"/>
<path d="M9.8125 6.56001C11.7925 5.68501 14.3545 5.78901 15.2295 7.20501C16.1045 8.62101 15.5005 10.268 14.0005 11.539C12.5005 12.81 11.9595 13.5 11.9595 14.5" stroke="#868E96" stroke-width="2" stroke-miterlimit="10" stroke-linecap="round" stroke-linejoin="round"/>
</svg>
