<svg width="24" height="24" viewBox="0 0 24 24" fill="none" xmlns="http://www.w3.org/2000/svg">
<path fill-rule="evenodd" clip-rule="evenodd" d="M1 4C1 3.44772 1.44772 3 2 3H4C4.55228 3 5 3.44772 5 4C5 4.55228 4.55228 5 4 5H3V22H21V5H20C19.4477 5 19 4.55228 19 4C19 3.44772 19.4477 3 20 3H22C22.5523 3 23 3.44772 23 4V23C23 23.5523 22.5523 24 22 24H2C1.44772 24 1 23.5523 1 23V4Z" fill="#868E96"/>
<path fill-rule="evenodd" clip-rule="evenodd" d="M9.1706 2C9.58229 0.834621 10.6934 0 12 0C13.3066 0 14.4177 0.834621 14.8294 2H17C17.5523 2 18 2.44772 18 3V7C18 7.55228 17.5523 8 17 8H7C6.44772 8 6 7.55228 6 7V3C6 2.44772 6.44772 2 7 2H9.1706ZM12 2C11.4473 2 11 2.44728 11 3C11 3.55228 10.5523 4 10 4H8V6H16V4H14C13.4477 4 13 3.55228 13 3C13 2.44728 12.5527 2 12 2Z" fill="#868E96"/>
<path fill-rule="evenodd" clip-rule="evenodd" d="M6 11C6 10.4477 6.44772 10 7 10H17C17.5523 10 18 10.4477 18 11C18 11.5523 17.5523 12 17 12H7C6.44772 12 6 11.5523 6 11Z" fill="#868E96"/>
<path fill-rule="evenodd" clip-rule="evenodd" d="M6 15C6 14.4477 6.44772 14 7 14H17C17.5523 14 18 14.4477 18 15C18 15.5523 17.5523 16 17 16H7C6.44772 16 6 15.5523 6 15Z" fill="#868E96"/>
<path fill-rule="evenodd" clip-rule="evenodd" d="M6 19C6 18.4477 6.44772 18 7 18H11C11.5523 18 12 18.4477 12 19C12 19.5523 11.5523 20 11 20H7C6.44772 20 6 19.5523 6 19Z" fill="#868E96"/>
</svg>
