<svg width="24" height="24" viewBox="0 0 24 24" fill="none" xmlns="http://www.w3.org/2000/svg">
<g clip-path="url(#clip0)">
<path fill-rule="evenodd" clip-rule="evenodd" d="M19.2929 14.2929C19.6834 13.9024 20.3166 13.9024 20.7071 14.2929L22.6537 16.2395C23.0795 16.6577 23.4179 17.1565 23.6491 17.7067C23.8811 18.2587 24.0005 18.8513 24.0005 19.45C24.0005 20.0487 23.8811 20.6413 23.6491 21.1933C23.4185 21.7421 23.0813 22.2396 22.6572 22.6571C22.2396 23.0813 21.7421 23.4185 21.1933 23.6491C20.6413 23.8811 20.0487 24.0005 19.45 24.0005C18.8513 24.0005 18.2587 23.8811 17.7067 23.6491C17.1565 23.4179 16.6577 23.0795 16.2395 22.6537L13.2929 19.7071C12.9024 19.3166 12.9024 18.6834 13.2929 18.2929C13.6834 17.9024 14.3166 17.9024 14.7071 18.2929L17.6643 21.2501C17.8971 21.4877 18.1749 21.6765 18.4815 21.8053C18.7881 21.9341 19.1174 22.0005 19.45 22.0005C19.7826 22.0005 20.1119 21.9341 20.4185 21.8053C20.7251 21.6765 21.0029 21.4877 21.2357 21.2501L21.95 21.95L21.2501 21.2357C21.4877 21.0029 21.6765 20.7251 21.8053 20.4185C21.9341 20.1119 22.0005 19.7826 22.0005 19.45C22.0005 19.1174 21.9341 18.7881 21.8053 18.4815C21.6765 18.1749 21.4877 17.8971 21.2501 17.6643L21.2429 17.6571L19.2929 15.7071C18.9024 15.3166 18.9024 14.6834 19.2929 14.2929Z" fill="#868E96"/>
<path fill-rule="evenodd" clip-rule="evenodd" d="M5.79289 6.09288C6.18342 5.70236 6.81658 5.70236 7.20711 6.09288L10.6321 9.51788C11.0226 9.90841 11.0226 10.5416 10.6321 10.9321C10.2416 11.3226 9.60842 11.3226 9.21789 10.9321L5.79289 7.50709C5.40237 7.11657 5.40237 6.48341 5.79289 6.09288Z" fill="#868E96"/>
<path fill-rule="evenodd" clip-rule="evenodd" d="M3.69299 1.19289C4.08352 0.802363 4.71668 0.802363 5.1072 1.19289L7.9072 3.99289C8.17504 4.26072 8.26856 4.65689 8.14878 5.01622L7.44878 7.11622C7.34925 7.41483 7.11493 7.64914 6.81633 7.74868L4.71633 8.44868C4.35699 8.56846 3.96082 8.47493 3.69299 8.2071L0.892991 5.4071C0.705454 5.21956 0.600098 4.96521 0.600098 4.69999C0.600098 4.43478 0.705455 4.18042 0.892991 3.99289L3.69299 1.19289ZM3.01431 4.69999L4.67019 6.35587L5.70953 6.00942L6.05597 4.97008L4.4001 3.31421L3.01431 4.69999Z" fill="#868E96"/>
<path fill-rule="evenodd" clip-rule="evenodd" d="M16.7143 0.0439588C17.6547 -0.0826204 18.612 0.0499121 19.4829 0.427514C19.787 0.559376 20.006 0.833373 20.0676 1.15907C20.1293 1.48477 20.0255 1.81985 19.7906 2.0537L17.4228 4.41072L19.5997 6.57613L21.9725 4.21338L22.6781 4.92199L23.6144 4.57081C24.0844 5.82386 24.128 7.19687 23.7386 8.47712C23.3994 9.64291 22.7493 10.6944 21.8577 11.5187C20.9645 12.3446 19.8628 12.9112 18.6714 13.1573C18.6527 13.1612 18.6338 13.1645 18.6149 13.1673C17.7242 13.2986 16.8191 13.2731 15.9402 13.0934L7.62926 22.4368C7.24836 22.9008 6.77421 23.2796 6.23745 23.5488C5.69351 23.8215 5.09775 23.9753 4.48978 24C3.8818 24.0247 3.27553 23.9196 2.71129 23.6919C2.14704 23.4641 1.63774 23.1188 1.21725 22.679L1.94007 21.988L1.21459 22.6762C0.807283 22.2469 0.490366 21.7401 0.28264 21.186C0.0749125 20.6318 -0.0193926 20.0416 0.00531941 19.4503C0.0300315 18.8591 0.173257 18.2788 0.426499 17.7439C0.67974 17.209 1.03784 16.7305 1.47955 16.3366L1.48397 16.3327L1.48398 16.3327L10.848 8.08228C10.7409 7.65279 10.6885 7.21049 10.6929 6.76596C10.6591 5.09016 11.2627 3.46372 12.3821 2.21561C13.4997 0.969573 15.0478 0.193768 16.7143 0.0439588ZM2.66428 21.2984C2.88832 21.5323 3.15951 21.716 3.4599 21.8373C3.76091 21.9588 4.08433 22.0148 4.40867 22.0016C4.73302 21.9885 5.05084 21.9064 5.34101 21.7609C5.63119 21.6154 5.88706 21.4098 6.09163 21.1578C6.10112 21.1461 6.11087 21.1346 6.12088 21.1234L14.8469 11.3134C15.1039 11.0244 15.5044 10.9096 15.8755 11.0184C16.6603 11.2486 17.4851 11.308 18.2946 11.1928C19.1189 11.0173 19.8809 10.6227 20.5 10.0502C21.126 9.47137 21.5823 8.73266 21.8196 7.91369L21.8237 7.89984C21.9118 7.6113 21.9672 7.3157 21.9899 7.01845L20.3057 8.69559C19.9156 9.08397 19.2851 9.08414 18.8948 8.69596L15.2998 5.11996C15.1112 4.93232 15.0051 4.67724 15.0051 4.41117C15.005 4.1451 15.111 3.88998 15.2996 3.70227L16.9838 2.02572C16.9774 2.02658 16.971 2.02745 16.9646 2.02834C16.947 2.03081 16.9293 2.0328 16.9116 2.03432C15.7421 2.13477 14.6548 2.67713 13.871 3.55099C13.0872 4.42485 12.6659 5.56454 12.6928 6.73808C12.6931 6.75019 12.6931 6.7623 12.693 6.77442C12.6872 7.2029 12.7669 7.62823 12.9273 8.02558C13.0862 8.41899 12.9795 8.86982 12.6611 9.1503L2.81058 17.8294C2.80989 17.83 2.8092 17.8306 2.80852 17.8312C2.56767 18.0465 2.37236 18.3078 2.23413 18.5997C2.09551 18.8925 2.0171 19.2102 2.00358 19.5339C1.99005 19.8575 2.04167 20.1806 2.15538 20.484C2.26888 20.7867 2.44192 21.0637 2.66428 21.2984Z" fill="#868E96"/>
<path fill-rule="evenodd" clip-rule="evenodd" d="M23.9864 7.31666C24.1199 6.36578 23.9798 5.39882 23.5832 4.52143C23.3556 4.01819 22.7632 3.79468 22.26 4.02221C21.7568 4.24973 21.5332 4.84213 21.7608 5.34537C22.0048 5.88517 22.088 6.47637 22.0034 7.0554C22.0007 7.07372 21.9986 7.0921 21.9969 7.11054C21.8927 8.2721 21.3299 9.36161 20.4091 10.153C19.9902 10.513 19.9425 11.1444 20.3025 11.5632C20.6625 11.982 21.2939 12.0298 21.7127 11.6698C23.0109 10.554 23.8281 8.99994 23.9864 7.31666Z" fill="#868E96"/>
</g>
<defs>
<clipPath id="clip0">
<rect width="24" height="24" fill="white"/>
</clipPath>
</defs>
</svg>
