<svg width="16" height="16" viewBox="0 0 16 16" fill="none" xmlns="http://www.w3.org/2000/svg">
<path d="M10 0.5V4.5H14" stroke="white" stroke-miterlimit="10"/>
<path d="M14 6.5V4.5L10 0.5H2V6.5" stroke="white" stroke-miterlimit="10" stroke-linecap="square"/>
<path d="M2 13.5V15.5H14V13.5" stroke="white" stroke-miterlimit="10" stroke-linecap="square"/>
<path d="M5.64981 11.5H4.79981L4.2498 10.6L3.6498 11.5H2.7998L3.7498 10.05L2.8498 8.64999H3.6998L4.1998 9.54999L4.6998 8.64999H5.5998L4.6998 10.1L5.64981 11.5Z" fill="white"/>
<path d="M6 11.5V8.64999H6.75V10.9H7.85V11.5H6Z" fill="white"/>
<path d="M10.1999 10.65C10.1999 10.85 10.1499 11 10.0499 11.1C9.9499 11.2 9.8499 11.35 9.6499 11.4C9.4499 11.45 9.2999 11.5 9.0499 11.5C8.8499 11.5 8.6999 11.5 8.5499 11.45C8.3999 11.4 8.2999 11.4 8.1499 11.3V10.6C8.2999 10.7 8.4499 10.75 8.5999 10.8C8.7499 10.85 8.8999 10.85 9.0499 10.85C9.1499 10.85 9.2499 10.85 9.2999 10.8C9.3499 10.75 9.3999 10.7 9.3999 10.65C9.3999 10.6 9.3999 10.6 9.3499 10.55C9.2999 10.5 9.2999 10.5 9.2499 10.45C9.1999 10.4 9.0999 10.35 8.8499 10.25C8.6499 10.15 8.4999 10.1 8.4499 10C8.3999 9.90001 8.2999 9.85001 8.2499 9.75001C8.1999 9.65001 8.1999 9.55001 8.1999 9.40001C8.1999 9.15001 8.2999 8.95001 8.4999 8.80001C8.6999 8.65001 8.9499 8.60001 9.2999 8.60001C9.5999 8.60001 9.8999 8.65001 10.1999 8.80001L9.9499 9.40001C9.6999 9.30001 9.4499 9.20001 9.2499 9.20001C9.1499 9.20001 9.0999 9.20001 9.0499 9.25001C8.9999 9.30001 8.9999 9.35001 8.9999 9.40001C8.9999 9.45001 9.0499 9.50001 9.0999 9.55001C9.1499 9.60001 9.2999 9.65001 9.5499 9.80001C9.7999 9.90001 9.9499 10.05 10.0499 10.15C10.1499 10.25 10.1999 10.45 10.1999 10.65Z" fill="white"/>
<path d="M13.2001 11.5H12.3001L11.7501 10.6L11.2001 11.5H10.3501L11.3001 10.05L10.4001 8.64999H11.2501L11.7501 9.54999L12.2501 8.64999H13.1501L12.2501 10.1L13.2001 11.5Z" fill="white"/>
<path d="M15.5 6.5H0.5V13.5H15.5V6.5Z" stroke="white" stroke-miterlimit="10" stroke-linecap="square"/>
</svg>
